<svg width="356" height="361" viewBox="0 0 356 361" fill="none" xmlns="http://www.w3.org/2000/svg">
<path d="M356 182C356 280.307 276.307 360 178 360C79.6933 360 0 280.307 0 182C0 83.6933 79.6933 4 178 4C276.307 4 356 83.6933 356 182Z" fill="#2B0727"/>
<path d="M133.767 184.959H117.78C117.78 184.959 117 184.55 117 183.322C117 181.68 117.78 181.277 117.78 181.277C117.78 181.277 172.371 180.868 172.761 181.277C172.992 181.52 174.004 183.618 175.5 184.595C175.954 184.891 176.468 185.104 177 185.248C177.669 185.43 178.364 185.504 179 185.504V189.595C178.387 189.724 177.7 189.698 177 189.548C176.046 189.344 175.067 188.911 174.21 188.329C172.499 187.166 171.229 184.959 170.811 184.959C170.031 184.959 137.667 184.549 137.667 184.959C137.667 187.376 138.447 191.095 138.447 191.095H134.937C134.937 191.095 134.547 184.959 133.767 184.959Z" fill="#BA8E4C"/>
<g filter="url(#filter0_i_1816_672)">
<path d="M127 168.237L137.2 149.881L137.985 148.318L152 147.147C152 147.147 149 153.095 148 155.095C147 157.095 147 159.595 147 159.595C147 159.595 149.5 157.762 150.5 157.095C151.5 156.428 152.5 156.095 154 155.595C155.5 155.095 155.5 155.595 156 155.095C156.5 154.595 158.5 147.147 158.5 147.147H160.738C173.606 146.522 177.477 151.703 178 154.177L177.608 174.095C174.6 171.752 167.486 167.221 161.523 166.284C154.069 165.112 144.1 165.923 139 167.095C134.92 168.032 129.354 168.237 127 168.237Z" fill="#BA8E4C"/>
</g>
<path d="M223.962 184.959H240.208C240.208 184.959 241 184.55 241 183.322C241 181.68 240.208 181.277 240.208 181.277C240.208 181.277 184.736 180.868 184.34 181.277C184.11 181.514 182.972 183.628 181.5 184.595C180.436 185.294 179.697 185.501 178.5 185.501V189.672C180 189.672 181.073 189.466 182.541 188.507C184.355 187.32 185.883 184.959 186.321 184.959C187.113 184.959 220 184.549 220 184.959C220 187.376 219.208 191.095 219.208 191.095H222.774C222.774 191.095 223.17 184.959 223.962 184.959Z" fill="#BA8E4C"/>
<path fill-rule="evenodd" clip-rule="evenodd" d="M231.026 170.109C231.424 170.515 237.5 178.683 237.5 178.683L178.819 179.095C179.317 178.648 181.5 178.595 184.5 178.095C187 177.595 189.644 176.72 192.767 175.805C199.28 173.898 212.616 174.595 217 174.595C213 173.595 199.902 172.595 190.775 175.399C181.647 178.202 178.42 178.432 178.819 178.024C178.996 177.843 189 174.095 191.902 173.095C194.33 172.215 197.023 171.764 198.402 171.595C200.961 171.281 205.373 171.06 209.871 171.282C211.946 171.385 215.723 171.983 217.874 172.143C219.775 172.285 220.055 171.983 221.86 172.143C219.345 171.92 214.598 170.943 209.871 170.516C206.034 170.17 202.221 170.311 199.542 170.516C198.235 170.617 196.635 170.821 195.402 171.095C191.747 171.908 189.698 172.498 187 173.595C184.265 174.707 184.459 174.595 182.5 175.595C180.541 176.595 180.303 176.958 179 177.095C178.612 177.136 178.628 177.129 178.5 177.095C178.186 177.012 176.499 175.42 176.5 175.095C176.501 174.733 176.638 175.632 178.819 175.595C180.077 175.574 184.391 172.242 189.5 170.095C193.249 168.519 195.289 167.962 199 167.595C200.857 167.411 204.407 167.482 206 167.595C207.598 167.708 211.177 167.878 212.5 168.095C215.734 168.626 221.465 169.871 223 170.095C225.79 170.502 230.627 169.703 231.026 170.109ZM226.243 177.242C226.689 177.015 218.074 176.125 209 176.095C201.85 176.071 193.872 176.595 190.775 177.595C190.775 177.595 200.023 177.178 209 177.242C217.493 177.303 225.856 177.44 226.243 177.242Z" fill="#BA8E4C"/>
<path fill-rule="evenodd" clip-rule="evenodd" d="M125.974 170.109C125.576 170.515 119.5 178.684 119.5 178.684L178.181 179.095C177.683 178.648 175.5 178.595 172.5 178.095C170 177.595 167.356 176.72 164.233 175.806C157.72 173.899 144.384 174.595 140 174.595C144 173.595 157.098 172.595 166.225 175.399C175.353 178.202 178.58 178.432 178.181 178.024C178.004 177.843 168 174.095 165.098 173.095C162.67 172.215 159.977 171.765 158.598 171.595C156.039 171.281 151.627 171.06 147.129 171.282C145.054 171.385 141.277 171.983 139.126 172.144C137.225 172.285 136.945 171.983 135.14 172.144C137.655 171.92 142.402 170.943 147.129 170.517C150.966 170.17 154.779 170.311 157.458 170.517C158.765 170.617 160.365 170.821 161.598 171.095C165.253 171.908 167.302 172.498 170 173.595C172.735 174.707 172.541 174.595 174.5 175.595C176.459 176.595 176.697 176.958 178 177.095C178.388 177.136 178.372 177.129 178.5 177.095C178.814 177.012 180.501 175.42 180.5 175.095C180.499 174.733 180.362 175.632 178.181 175.595C176.923 175.574 172.609 172.242 167.5 170.095C163.751 168.52 161.711 167.962 158 167.595C156.143 167.411 152.593 167.483 151 167.595C149.402 167.708 145.823 167.878 144.5 168.095C141.266 168.626 135.535 169.871 134 170.095C131.21 170.502 126.373 169.703 125.974 170.109ZM130.757 177.242C130.311 177.015 138.926 176.125 148 176.095C155.15 176.071 163.128 176.595 166.225 177.595C166.225 177.595 156.977 177.178 148 177.242C139.507 177.303 131.144 177.44 130.757 177.242Z" fill="#BA8E4C"/>
<g filter="url(#filter1_i_1816_672)">
<path d="M230 168.237L219.8 149.881L219.015 148.318C217.054 148.318 209.129 147.772 196.262 147.147C183.394 146.522 179.523 151.703 179 154.177L179.392 174.095C182.4 171.752 189.514 167.221 195.477 166.284C202.931 165.112 212.9 165.923 218 167.095C222.08 168.032 227.646 168.237 230 168.237Z" fill="#BA8E4C"/>
</g>
<circle cx="179.5" cy="181.595" r="120" stroke="#BA8E4C" stroke-width="3"/>
<circle cx="179.5" cy="181.595" r="109.85" stroke="#BA8E4C" stroke-width="1.3"/>
<path d="M221 198.095H135L137.867 202.095H216.495L221 198.095Z" fill="#BA8E4C"/>
<path d="M228.965 195.095C229.369 195.095 226.141 191.72 224.931 191.413C223.72 191.106 224.124 191.106 221.3 191.106C210.059 191.108 145.452 191.08 130.926 191.106C129.218 191.11 128.101 191.413 128.101 191.413C128.101 191.413 127.579 194.788 128.908 194.482C130.15 194.195 209.644 194.268 221.3 194.482C222.126 194.497 228.562 195.095 228.965 195.095Z" fill="#BA8E4C" stroke="#BA8E4C"/>
<path d="M208 207.095H146L146.8 211.095H207.2L208 207.095Z" fill="#BA8E4C"/>
<path d="M208 216.095H147V219.095H208V216.095Z" fill="#BA8E4C"/>
<path d="M208 221.095H148L147 223.095H209L208 221.095Z" fill="#BA8E4C"/>
<path d="M111.5 215.138C110.847 209.013 111.867 204.848 115.538 199.886C118.36 196.071 123.753 192.74 126.843 191.457C127.841 191.043 129.67 190.654 128.862 191.056C128.055 191.457 134.111 194.267 130.477 195.069C126.843 195.872 125.176 196.629 122.402 198.682C118.505 201.564 116.209 204.007 115.134 208.716C114.221 212.717 116.345 219.152 116.345 219.152C116.345 219.152 119.294 224.575 122.402 226.778C125.528 228.995 127.851 230.109 131.689 229.989C135.435 229.872 137.705 228.777 140.571 226.377C143.181 224.192 144.555 222.433 145.417 219.152C146.465 215.163 146.341 212.251 144.205 208.716C142.479 205.86 140.538 204.102 137.341 203.097C134.936 202.34 133.312 202.427 130.881 203.097C127.416 204.052 125.144 205.482 123.613 208.716C122.335 211.415 122.032 213.6 123.209 216.342C124.305 218.893 125.799 220.322 128.458 221.159C131.032 221.969 133.088 221.862 135.322 220.356C137.315 219.013 138.734 217.524 138.553 215.138C138.414 213.315 137.652 212.15 136.13 211.124C134.671 210.141 133.285 209.579 131.689 210.322C130.798 210.736 129.919 212.141 129.67 213.131C129.398 214.207 129.374 214.865 128.862 215.138C127.88 215.662 127.439 215.63 126.44 215.138C125.854 214.85 125.474 213.116 125.632 212.329C126.036 210.322 127.244 208.731 129.266 207.512C131.831 205.965 134.136 206.043 136.938 207.111C139.959 208.262 141.777 210.019 142.59 213.131C143.408 216.259 142.498 218.556 140.571 221.159C138.439 224.041 136.074 225.182 132.496 225.574C127.658 226.104 124.076 224.253 121.191 220.356C118.969 217.355 118.368 214.829 118.768 211.124C119.366 205.575 122.536 202.189 127.651 199.886C133.441 197.279 138.861 197.917 143.802 201.893C148.84 205.947 149.902 211.159 149.051 217.547C148.172 224.141 145.275 228.484 139.36 231.595C132.508 235.199 125.882 234.47 119.575 229.989C114.18 226.156 112.2 221.694 111.5 215.138Z" fill="#BA8E4C"/>
<path d="M244.051 214.736C244.704 208.647 243.684 204.506 240.013 199.573C237.021 195.552 232.077 192.375 230.058 191.577C228.039 190.779 226.01 190.476 224.809 190.396C224.233 190.358 222.79 190.38 222.79 190.38C222.79 190.38 224.407 192.199 224.405 192.391C224.394 193.573 222.386 194.769 222.386 194.769C222.386 194.769 224.194 194.84 226.319 195.403C228.443 195.966 231.08 196.854 233.149 198.376C237.046 201.242 239.342 203.67 240.417 208.352C241.33 212.329 239.206 218.726 239.206 218.726C239.206 218.726 236.257 224.117 233.149 226.307C230.023 228.51 227.7 229.618 223.862 229.499C220.116 229.383 217.846 228.294 214.979 225.908C212.37 223.736 210.996 221.987 210.134 218.726C209.086 214.76 209.209 211.865 211.345 208.352C213.072 205.512 215.013 203.765 218.21 202.765C220.615 202.013 222.239 202.099 224.67 202.765C228.135 203.715 230.406 205.137 231.938 208.352C233.215 211.034 233.519 213.206 232.341 215.933C231.246 218.468 229.752 219.889 227.092 220.721C224.519 221.526 222.462 221.42 220.228 219.923C218.236 218.588 216.817 217.107 216.998 214.736C217.137 212.924 217.899 211.765 219.421 210.746C220.88 209.768 222.265 209.209 223.862 209.948C224.753 210.359 225.631 211.756 225.881 212.741C226.152 213.81 226.177 214.464 226.689 214.736C227.671 215.257 228.112 215.224 229.111 214.736C229.697 214.449 230.077 212.725 229.919 211.943C229.515 209.948 228.307 208.367 226.285 207.154C223.72 205.617 221.415 205.694 218.613 206.755C215.592 207.9 213.774 209.646 212.961 212.741C212.143 215.85 213.053 218.133 214.979 220.721C217.112 223.586 219.477 224.72 223.055 225.11C227.893 225.637 231.475 223.797 234.36 219.923C236.582 216.94 237.182 214.428 236.783 210.746C236.185 205.228 233.015 201.862 227.9 199.573C222.11 196.982 216.69 197.616 211.749 201.568C206.711 205.599 205.649 210.779 206.5 217.13C207.379 223.685 210.276 228.002 216.191 231.095C223.043 234.678 229.669 233.954 235.975 229.499C241.371 225.688 243.351 221.253 244.051 214.736Z" fill="#BA8E4C"/>
<path fill-rule="evenodd" clip-rule="evenodd" d="M145.434 226.3C146.238 226.433 148.647 226.718 149.511 226.718C150.375 226.718 152.105 225.206 154.28 225.104C156.806 224.985 158.642 227.117 159.966 227.117C161.29 227.117 163.012 225.104 165.54 225.104C168.068 225.104 170.245 227.117 171.225 227.117C172.205 227.117 174.536 225.026 177.201 225.104C179.728 225.177 181.845 227.117 182.886 227.117C183.928 227.117 185.67 225.251 188.058 225.104C190.719 224.94 193.044 227.117 194.146 227.117C195.247 227.117 196.925 225.104 199.317 225.104C201.71 225.104 203.848 227.117 204.601 227.117C205.353 227.117 206.554 226.419 208.164 226.3C209.849 226.176 212.185 227.895 212.185 227.895C212.185 227.895 215 230.288 215 231.484V284.917L211.5 287.095L194 290.595L175 291.595L165 291.095L139 284.095V230.288C139 230.288 144.63 226.167 145.434 226.3ZM142.5 284.595L142.619 230.288C142.619 230.288 144.382 229.97 145.434 230.288C146.309 230.552 147.444 231.484 147.444 231.484V286.23L142.5 284.595ZM151.063 287.31C151.063 287.31 150.999 232.618 151.063 231.484C151.128 230.35 152.716 229.178 154.28 229.091C155.973 228.998 157.899 230.754 157.899 231.484C157.899 232.214 157.899 288.905 157.899 288.905L151.063 287.31ZM162 289.595C162 289.595 161.921 232.214 161.921 231.484C161.921 230.754 163.845 229.091 165.54 229.091C167.235 229.091 168.497 229.926 169.159 231.484C169.159 254.375 169.5 290.817 169.5 290.817L162 289.595ZM177.201 229.091C175.509 228.998 173.582 230.754 173.582 231.484V290.817L180.642 290.937L180.418 231.484C180.418 230.754 178.765 229.178 177.201 229.091ZM188.058 229.091C186.494 229.178 184.841 230.754 184.841 231.484V290.937L191.677 290.379V231.484C191.677 230.754 189.751 228.998 188.058 229.091ZM199.317 229.091C197.622 229.091 195.698 230.754 195.698 231.484V290.101L202.937 288.595V231.484C202.937 230.754 201.013 229.091 199.317 229.091ZM211.5 286.595C211.5 265.416 211.381 231.484 211.381 231.484C211.381 231.484 210.957 229.667 209.34 229.543C207.723 229.419 206.958 231.484 206.958 231.484V287.595C206.958 287.595 211.5 287.325 211.5 286.595Z" fill="#BA8E4C"/>
<g filter="url(#filter2_i_1816_672)">
<path d="M203.882 76.0058C218.888 59.9392 240.095 63.5358 248.823 67.3424C249.213 67.3424 249.213 67.7362 246.087 69.3114C242.179 71.2803 241.007 74.4306 235.536 81.5188C231.159 87.1893 225.636 89.3945 223.421 89.7883L212.48 91.7573L222.249 92.1511L203.882 111.84C197.942 111.84 191.768 115.516 189.423 117.353L201.147 115.778C196.457 126.174 183.301 129.561 177.309 129.955H185.515C179.654 135.468 168.712 135.468 168.321 136.255C168.008 136.885 171.056 138.093 172.619 138.618H162.85L164.022 135.468C179.966 103.335 202.928 84.5268 214 78.095C192.116 86.2408 169.754 117.729 159.724 133.499C158.161 130.979 158.812 122.473 159.333 118.535L161.677 121.291C160.74 117.196 162.068 113.284 162.85 111.84L164.804 115.778C165.116 105.067 171.708 96.8765 174.964 94.12L176.137 101.208C176.137 85.7717 196.718 74.2993 207.009 70.4927L203.882 76.0058Z" fill="#BA8E4C"/>
<path d="M147.5 158.595C150.5 151.095 158.134 137.952 161 133.095L162.184 136.82C159.371 141.377 156.672 150.587 155.5 154.595C153.624 153.965 149.324 156.757 147.5 158.595Z" fill="#BA8E4C"/>
</g>
<circle cx="178" cy="182.095" r="175.5" stroke="#BA8E4C" stroke-width="5"/>
<circle cx="178" cy="182.095" r="163.5" stroke="#BA8E4C" stroke-width="3"/>
<mask id="mask0_1816_672" style="mask-type:luminance" maskUnits="userSpaceOnUse" x="32" y="181" width="9" height="9">
<path d="M32.5337 181.355H40.4448V189.272H32.5337V181.355Z" fill="white"/>
</mask>
<g mask="url(#mask0_1816_672)">
<mask id="mask1_1816_672" style="mask-type:luminance" maskUnits="userSpaceOnUse" x="32" y="181" width="9" height="9">
<path d="M36.4879 181.355C34.3038 181.355 32.5337 183.129 32.5337 185.315C32.5337 187.5 34.3038 189.272 36.4879 189.272C38.6747 189.272 40.4448 187.5 40.4448 185.315C40.4448 183.129 38.6747 181.355 36.4879 181.355Z" fill="white"/>
</mask>
<g mask="url(#mask1_1816_672)">
<mask id="mask2_1816_672" style="mask-type:luminance" maskUnits="userSpaceOnUse" x="32" y="181" width="9" height="9">
<path d="M40.8055 181.246H32.2148V189.842H40.8055V181.246Z" fill="white"/>
</mask>
<g mask="url(#mask2_1816_672)">
<mask id="mask3_1816_672" style="mask-type:luminance" maskUnits="userSpaceOnUse" x="32" y="181" width="9" height="9">
<path d="M32.5337 181.355H40.4448V189.272H32.5337V181.355Z" fill="white"/>
</mask>
<g mask="url(#mask3_1816_672)">
<mask id="mask4_1816_672" style="mask-type:luminance" maskUnits="userSpaceOnUse" x="32" y="181" width="9" height="9">
<path d="M36.4879 181.355C34.3038 181.355 32.5337 183.129 32.5337 185.315C32.5337 187.5 34.3038 189.272 36.4879 189.272C38.6747 189.272 40.4448 187.5 40.4448 185.315C40.4448 183.129 38.6747 181.355 36.4879 181.355Z" fill="white"/>
</mask>
<g mask="url(#mask4_1816_672)">
<path d="M32.5337 181.355H40.4448V189.272H32.5337V181.355Z" fill="#BA8E4C"/>
</g>
</g>
</g>
</g>
</g>
<mask id="mask5_1816_672" style="mask-type:luminance" maskUnits="userSpaceOnUse" x="199" y="38" width="9" height="9">
<path d="M199.576 38.5757H207.49V46.4923H199.576V38.5757Z" fill="white"/>
</mask>
<g mask="url(#mask5_1816_672)">
<mask id="mask6_1816_672" style="mask-type:luminance" maskUnits="userSpaceOnUse" x="199" y="38" width="9" height="9">
<path d="M203.533 38.5757C201.349 38.5757 199.576 40.3471 199.576 42.5354C199.576 44.7209 201.349 46.4923 203.533 46.4923C205.717 46.4923 207.49 44.7209 207.49 42.5354C207.49 40.3471 205.717 38.5757 203.533 38.5757Z" fill="white"/>
</mask>
<g mask="url(#mask6_1816_672)">
<mask id="mask7_1816_672" style="mask-type:luminance" maskUnits="userSpaceOnUse" x="199" y="37" width="9" height="10">
<path d="M207.607 37.9685H199.017V46.5651H207.607V37.9685Z" fill="white"/>
</mask>
<g mask="url(#mask7_1816_672)">
<mask id="mask8_1816_672" style="mask-type:luminance" maskUnits="userSpaceOnUse" x="199" y="38" width="9" height="9">
<path d="M199.576 38.5757H207.49V46.4923H199.576V38.5757Z" fill="white"/>
</mask>
<g mask="url(#mask8_1816_672)">
<mask id="mask9_1816_672" style="mask-type:luminance" maskUnits="userSpaceOnUse" x="199" y="38" width="9" height="9">
<path d="M203.533 38.5757C201.349 38.5757 199.576 40.3471 199.576 42.5354C199.576 44.7209 201.349 46.4923 203.533 46.4923C205.717 46.4923 207.49 44.7209 207.49 42.5354C207.49 40.3471 205.717 38.5757 203.533 38.5757Z" fill="white"/>
</mask>
<g mask="url(#mask9_1816_672)">
<path d="M199.576 38.5757H207.49V46.4923H199.576V38.5757Z" fill="#BA8E4C"/>
</g>
</g>
</g>
</g>
</g>
<mask id="mask10_1816_672" style="mask-type:luminance" maskUnits="userSpaceOnUse" x="317" y="181" width="9" height="9">
<path d="M317.58 181.355H325.494V189.272H317.58V181.355Z" fill="white"/>
</mask>
<g mask="url(#mask10_1816_672)">
<mask id="mask11_1816_672" style="mask-type:luminance" maskUnits="userSpaceOnUse" x="317" y="181" width="9" height="9">
<path d="M321.537 181.355C319.353 181.355 317.58 183.129 317.58 185.315C317.58 187.5 319.353 189.272 321.537 189.272C323.721 189.272 325.494 187.5 325.494 185.315C325.494 183.129 323.721 181.355 321.537 181.355Z" fill="white"/>
</mask>
<g mask="url(#mask11_1816_672)">
<mask id="mask12_1816_672" style="mask-type:luminance" maskUnits="userSpaceOnUse" x="317" y="181" width="9" height="9">
<path d="M325.729 181.246H317.138V189.842H325.729V181.246Z" fill="white"/>
</mask>
<g mask="url(#mask12_1816_672)">
<mask id="mask13_1816_672" style="mask-type:luminance" maskUnits="userSpaceOnUse" x="317" y="181" width="9" height="9">
<path d="M317.58 181.355H325.494V189.272H317.58V181.355Z" fill="white"/>
</mask>
<g mask="url(#mask13_1816_672)">
<mask id="mask14_1816_672" style="mask-type:luminance" maskUnits="userSpaceOnUse" x="317" y="181" width="9" height="9">
<path d="M321.537 181.355C319.353 181.355 317.58 183.129 317.58 185.315C317.58 187.5 319.353 189.272 321.537 189.272C323.721 189.272 325.494 187.5 325.494 185.315C325.494 183.129 323.721 181.355 321.537 181.355Z" fill="white"/>
</mask>
<g mask="url(#mask14_1816_672)">
<path d="M317.58 181.355H325.494V189.272H317.58V181.355Z" fill="#BA8E4C"/>
</g>
</g>
</g>
</g>
</g>
<mask id="mask15_1816_672" style="mask-type:luminance" maskUnits="userSpaceOnUse" x="20" y="207" width="308" height="136">
<path d="M327.832 207H20V342.397H327.832V207Z" fill="white"/>
</mask>
<g mask="url(#mask15_1816_672)">
<path d="M52.5364 221.593C52.6399 222.024 52.4637 222.346 52.0107 222.556L49.1024 223.686C48.6913 223.821 48.4452 223.703 48.3641 223.339C48.2886 223.04 48.4536 222.802 48.8563 222.623C49.8546 222.145 50.4922 221.655 50.769 221.157C51.0655 220.597 51.1438 220.018 51.0039 219.422L50.344 216.668L36.4401 219.993C35.7242 220.163 35.4669 220.667 35.6683 221.504L35.769 221.907C35.8501 222.256 35.7354 222.469 35.4222 222.545C35.0922 222.626 34.8881 222.492 34.807 222.142L33.5094 216.702C33.4199 216.357 33.5374 216.145 33.8674 216.064C34.1806 215.988 34.3819 216.122 34.4714 216.467L34.5609 216.881C34.7622 217.715 35.2209 218.048 35.9367 217.877L49.8406 214.553L49.1807 211.777C49.038 211.172 48.7109 210.708 48.1963 210.377C47.6874 210.05 46.8932 209.893 45.8138 209.907C45.3719 209.93 45.1146 209.784 45.0419 209.471C44.958 209.107 45.1314 208.9 45.5565 208.855L48.6661 208.553C49.1583 208.502 49.4547 208.687 49.561 209.112L52.5364 221.593Z" fill="#BA8E4C"/>
<path d="M44.8706 244.729L50.8885 242.244L47.6335 234.308L41.6155 236.793C40.9276 237.067 40.7458 237.593 41.0674 238.371L41.2352 238.796C41.3694 239.124 41.2856 239.35 40.9891 239.479C40.6815 239.605 40.4634 239.504 40.3292 239.177L38.2039 233.994C38.0697 233.672 38.1535 233.449 38.4612 233.323C38.7576 233.194 38.9757 233.292 39.1099 233.614L39.2777 234.039C39.5965 234.806 40.0999 235.052 40.7878 234.778L52.9802 229.752C53.657 229.469 53.836 228.943 53.5172 228.174L53.3494 227.748C53.2151 227.429 53.2962 227.208 53.5955 227.088C53.9087 226.962 54.1324 227.06 54.2666 227.379L56.3919 232.561C56.5261 232.889 56.4366 233.116 56.1234 233.244C55.8242 233.362 55.6089 233.258 55.4747 232.931L55.3069 232.506C54.9853 231.73 54.4847 231.484 53.808 231.767L48.6066 233.905L51.8617 241.841L57.063 239.703C57.7398 239.418 57.9188 238.889 57.6 238.113L57.4322 237.699C57.2979 237.364 57.379 237.134 57.6783 237.017C57.9915 236.888 58.2152 236.994 58.3494 237.33L60.4747 242.501C60.6145 242.837 60.5306 243.067 60.2174 243.195C59.9182 243.313 59.6973 243.207 59.5575 242.871L59.3897 242.457C59.0681 241.679 58.5675 241.432 57.8908 241.718L45.6983 246.744C45.0104 247.018 44.8286 247.544 45.1502 248.322L45.318 248.736C45.4578 249.072 45.3795 249.301 45.0831 249.43C44.7755 249.556 44.5518 249.453 44.412 249.117L42.2867 243.945C42.1524 243.61 42.2363 243.377 42.5439 243.251C42.8404 243.123 43.0585 243.229 43.1927 243.565L43.3605 243.979C43.6793 244.754 44.1827 245.003 44.8706 244.729Z" fill="#BA8E4C"/>
<path d="M53.8107 263.747C54.1742 264.352 54.6552 264.746 55.2537 264.934C55.8353 265.113 56.6407 265.018 57.6698 264.654C58.0948 264.503 58.3801 264.553 58.5311 264.8C58.7324 265.127 58.6262 265.382 58.2179 265.561L55.3767 266.814C54.9125 267.007 54.549 266.882 54.2805 266.434L48.408 256.684C48.2206 256.385 48.2738 256.15 48.5646 255.979C48.8386 255.814 49.0707 255.881 49.2581 256.181L49.4706 256.539C49.9181 257.277 50.4578 257.457 51.0926 257.076L62.379 250.259C63.011 249.879 63.106 249.319 62.6586 248.58L62.4461 248.222C62.2587 247.925 62.3035 247.693 62.5803 247.528C62.8711 247.357 63.1088 247.422 63.2962 247.718L69.1911 257.513C69.4595 257.952 69.3924 258.291 68.9897 258.531L66.8309 259.841C66.4953 260.034 66.2185 259.953 66.0032 259.595C65.8242 259.295 65.9025 259.049 66.2381 258.856C66.8337 258.489 67.1916 258.044 67.3119 257.524C67.4461 256.942 67.351 256.385 67.0322 255.856L65.03 252.52C64.6413 251.871 64.1295 251.737 63.4975 252.117L58.7995 254.96L60.8353 258.352C61.266 259.06 61.8672 259.18 62.6362 258.71L63.106 258.442C63.4192 258.246 63.6793 258.324 63.889 258.677C64.1184 259.063 64.068 259.359 63.7324 259.561L59.6273 262.035C59.2973 262.236 59.0177 262.141 58.7884 261.755C58.5786 261.402 58.6345 261.131 58.9561 260.938L59.4036 260.669C60.1782 260.199 60.3488 259.609 59.9181 258.901L57.8823 255.509L52.2111 258.934C51.5763 259.315 51.4561 259.835 51.8532 260.501L53.8107 263.747Z" fill="#BA8E4C"/>
<path d="M77.9502 281.844C78.7836 282.723 79.6644 283.171 80.5901 283.188C81.5884 283.224 82.4749 282.874 83.2523 282.135C84.2953 281.145 84.7959 280.26 84.7512 279.483C84.698 278.542 84.2925 277.675 83.5319 276.874L82.4133 275.688C81.8988 275.151 81.3731 275.139 80.8361 275.654L76.2276 280.031L77.9502 281.844ZM77.6818 282.986L75.5229 280.714L71.2835 284.743C70.7466 285.25 70.7718 285.812 71.3618 286.434L71.6638 286.747C71.9015 286.999 71.9043 287.24 71.675 287.463C71.4289 287.693 71.1856 287.682 70.9479 287.43L67.0889 283.367C66.8428 283.112 66.8428 282.869 67.0889 282.639C67.3182 282.415 67.5587 282.432 67.8047 282.684L68.0956 282.997C68.6828 283.616 69.2477 283.672 69.7846 283.165L79.3373 274.076C79.8742 273.561 79.8462 272.996 79.259 272.375L78.9681 272.061C78.722 271.809 78.7136 271.574 78.9458 271.356C79.1918 271.127 79.4379 271.138 79.684 271.39L84.2478 276.203C85.523 277.546 86.2109 278.942 86.3172 280.389C86.4346 281.763 85.9928 282.93 84.9861 283.893C84.1192 284.721 83.0789 285.074 81.8652 284.956C80.2013 284.822 78.8059 284.164 77.6818 282.986Z" fill="#BA8E4C"/>
<path d="M89.6138 304.232L81.5825 297.751C81.2916 297.519 81.2497 297.272 81.4594 297.012C81.6608 296.766 81.9068 296.76 82.1977 296.99L82.5444 297.27C83.2156 297.813 83.786 297.799 84.2558 297.225L92.5333 286.949C92.9947 286.376 92.8912 285.816 92.2201 285.27L91.8957 285.013C91.6189 284.789 91.5825 284.551 91.7839 284.296C91.9908 284.036 92.2341 284.016 92.5109 284.24L96.8622 287.755C97.1362 287.979 97.1698 288.222 96.9629 288.483C96.7615 288.737 96.521 288.751 96.247 288.527L95.9114 288.259C95.2458 287.716 94.6838 287.73 94.2223 288.304L85.9449 298.579C85.4751 299.153 85.5254 299.676 86.1015 300.146L88.238 301.87C88.7889 302.318 89.3817 302.522 90.0165 302.486C90.6121 302.477 91.3364 302.116 92.1865 301.4C92.5221 301.123 92.8018 301.075 93.0255 301.255C93.3219 301.501 93.3191 301.769 93.0143 302.06L90.7659 304.21C90.3996 304.551 90.0165 304.559 89.6138 304.232Z" fill="#BA8E4C"/>
<path d="M109.764 300.834L104.44 305.356L108.377 307.696L109.764 300.834ZM103.5 306.095L100.021 308.916C99.4088 309.414 99.5682 309.946 100.502 310.505L100.938 310.763C101.243 310.942 101.313 311.168 101.151 311.445C100.978 311.736 100.74 311.792 100.435 311.613L96.0615 309.005C95.7623 308.826 95.698 308.591 95.8714 308.3C96.0335 308.026 96.2656 307.975 96.5649 308.155L97.0906 308.457C97.5436 308.734 98.1225 308.599 98.8244 308.054L111.084 298.092C111.42 297.809 111.691 297.728 111.901 297.845C112.183 298.019 112.286 298.321 112.214 298.752L109.574 314.468C109.395 315.324 109.543 315.895 110.021 316.18L110.446 316.438C110.796 316.639 110.888 316.877 110.726 317.154C110.553 317.445 110.293 317.49 109.943 317.288L104.921 314.289C104.666 314.132 104.624 313.908 104.798 313.617C104.96 313.34 105.17 313.281 105.424 313.438L105.715 313.606C106.66 314.171 107.219 314.076 107.393 313.315L108.198 308.893L103.5 306.095Z" fill="#BA8E4C"/>
<path d="M131.855 321.859L130.58 323.986C130.303 324.425 129.937 324.674 129.484 324.736C128.066 324.937 126.366 324.635 124.383 323.829C122.107 322.903 120.583 321.336 119.808 319.128C119.07 316.884 119.143 314.662 120.032 312.468C120.972 310.156 122.56 308.528 124.797 307.588C127.071 306.664 129.33 306.656 131.576 307.565C133.119 308.192 134.352 308.95 135.278 309.837C135.628 310.196 135.737 310.585 135.602 311.002L134.965 313.184C134.853 313.514 134.618 313.626 134.26 313.52C133.885 313.403 133.74 313.179 133.824 312.848C133.95 312.334 133.925 311.768 133.746 311.147C133.438 309.902 132.54 308.976 131.05 308.371C129.475 307.73 127.742 307.923 125.849 308.953C124.439 309.737 123.29 311.223 122.403 313.408C121.59 315.423 121.422 317.315 121.9 319.083C122.451 321.143 123.491 322.481 125.021 323.102C126.646 323.765 128.03 323.639 129.171 322.721C129.825 322.206 130.356 321.694 130.759 321.188C131.011 320.888 131.31 320.866 131.654 321.121C131.945 321.344 132.012 321.591 131.855 321.859Z" fill="#BA8E4C"/>
<path d="M146.427 329.551C147.112 329.721 147.735 329.657 148.295 329.36C148.832 329.083 149.329 328.448 149.794 327.457C149.995 327.054 150.233 326.886 150.51 326.954C150.881 327.043 150.985 327.298 150.823 327.715L149.704 330.603C149.517 331.073 149.17 331.244 148.664 331.118L137.624 328.364C137.28 328.283 137.148 328.079 137.232 327.748C137.305 327.443 137.514 327.331 137.858 327.413L138.272 327.513C139.106 327.723 139.615 327.466 139.794 326.741L142.982 313.936C143.16 313.219 142.831 312.757 141.997 312.548L141.583 312.447C141.239 312.366 141.105 312.173 141.181 311.865C141.262 311.537 141.474 311.414 141.818 311.495L152.914 314.26C153.412 314.389 153.608 314.68 153.496 315.133L152.881 317.573C152.791 317.954 152.54 318.094 152.131 317.988C151.796 317.906 151.673 317.674 151.762 317.294C151.933 316.616 151.874 316.048 151.583 315.592C151.276 315.086 150.823 314.753 150.219 314.596L146.46 313.667C145.722 313.482 145.263 313.745 145.084 314.462L143.753 319.801L147.59 320.764C148.395 320.96 148.904 320.615 149.123 319.734L149.257 319.219C149.346 318.861 149.584 318.732 149.973 318.827C150.42 318.939 150.593 319.185 150.498 319.566L149.346 324.211C149.248 324.592 148.977 324.726 148.53 324.614C148.141 324.519 147.993 324.287 148.082 323.92L148.216 323.405C148.432 322.527 148.138 321.989 147.333 321.793L143.496 320.831L141.897 327.267C141.718 327.992 142.003 328.445 142.758 328.633L146.427 329.551Z" fill="#BA8E4C"/>
<path d="M187.126 325.651C187.118 326.877 186.863 328.041 186.365 329.143C185.873 330.24 185.236 331.197 184.453 332.009C183.653 332.809 182.722 333.447 181.656 333.923C180.596 334.393 179.425 334.62 178.144 334.606C176.919 334.597 175.778 334.348 174.721 333.856C173.669 333.363 172.752 332.711 171.969 331.897C171.186 331.069 170.571 330.103 170.124 328.998C169.682 327.887 169.466 326.72 169.475 325.494C169.489 324.263 169.727 323.099 170.191 322.002C170.661 320.905 171.293 319.948 172.092 319.125C172.889 318.328 173.818 317.69 174.878 317.211C175.943 316.735 177.087 316.5 178.312 316.506C179.592 316.523 180.764 316.78 181.824 317.278C182.889 317.771 183.807 318.426 184.576 319.237C185.319 320.088 185.935 321.062 186.421 322.159C186.905 323.256 187.14 324.42 187.126 325.651ZM184.587 325.629C184.601 324.518 184.467 323.468 184.184 322.483C183.907 321.498 183.471 320.633 182.875 319.886C182.322 319.142 181.637 318.551 180.817 318.118C179.995 317.678 179.156 317.454 178.3 317.446C177.495 317.44 176.681 317.648 175.862 318.073C175.04 318.493 174.335 319.066 173.748 319.797C173.149 320.536 172.719 321.397 172.45 322.382C172.182 323.362 172.039 324.406 172.025 325.517C172.017 326.63 172.14 327.674 172.394 328.651C172.646 329.63 173.065 330.498 173.647 331.259C174.22 332.02 174.914 332.613 175.728 333.039C176.539 333.458 177.35 333.671 178.155 333.677C179.011 333.685 179.855 333.484 180.683 333.072C181.511 332.655 182.207 332.082 182.775 331.348C183.37 330.61 183.818 329.753 184.117 328.774C184.422 327.789 184.578 326.742 184.587 325.629Z" fill="#BA8E4C"/>
<path d="M201.712 323.787L197.797 324.347L198.748 330.918C198.851 331.651 199.321 331.956 200.157 331.836L200.605 331.768C200.954 331.724 201.153 331.864 201.198 332.183C201.242 332.513 201.088 332.697 200.739 332.742L195.202 333.548C194.85 333.601 194.654 333.464 194.609 333.134C194.564 332.815 194.715 332.628 195.068 332.574L195.515 332.507C196.343 332.39 196.704 331.964 196.6 331.231L194.71 318.168C194.604 317.438 194.128 317.136 193.278 317.262L192.864 317.318C192.515 317.371 192.316 317.239 192.271 316.926C192.221 316.59 192.369 316.397 192.719 316.344L204.028 314.709C204.534 314.637 204.822 314.833 204.889 315.303L205.258 317.788C205.308 318.177 205.129 318.401 204.721 318.459C204.369 318.512 204.167 318.345 204.117 317.956C204.011 317.239 203.742 316.735 203.312 316.444C202.856 316.086 202.308 315.952 201.667 316.041L197.831 316.601C197.076 316.708 196.751 317.124 196.857 317.855L197.64 323.295L201.555 322.735C202.375 322.618 202.722 322.114 202.596 321.224L202.517 320.687C202.464 320.329 202.64 320.122 203.043 320.06C203.491 319.993 203.742 320.15 203.804 320.53L204.486 325.276C204.536 325.657 204.341 325.881 203.893 325.948C203.491 326.009 203.261 325.855 203.211 325.489L203.133 324.963C203.004 324.062 202.531 323.67 201.712 323.787Z" fill="#BA8E4C"/>
<path d="M232.579 305.952C232.996 305.795 233.331 305.924 233.586 306.332L235.096 309.086C235.275 309.475 235.191 309.735 234.85 309.87C234.559 309.976 234.302 309.842 234.078 309.467C233.474 308.535 232.906 307.964 232.378 307.754C231.788 307.53 231.203 307.53 230.622 307.754L227.982 308.75L233.06 322.115C233.32 322.809 233.849 323.008 234.649 322.709L235.051 322.552C235.387 322.426 235.613 322.513 235.734 322.809C235.851 323.123 235.745 323.344 235.409 323.47L230.174 325.462C229.844 325.591 229.621 325.496 229.503 325.182C229.383 324.886 229.486 324.673 229.816 324.544L230.219 324.388C231.016 324.083 231.284 323.582 231.024 322.888L225.946 309.523L223.284 310.541C222.711 310.765 222.288 311.151 222.02 311.694C221.76 312.24 221.707 313.049 221.863 314.123C221.939 314.557 221.827 314.828 221.528 314.94C221.178 315.075 220.954 314.929 220.856 314.504L220.141 311.459C220.037 310.983 220.191 310.664 220.599 310.508L232.579 305.952Z" fill="#BA8E4C"/>
<path d="M256.491 310.579L253.269 304.927L245.819 309.191L249.041 314.844C249.404 315.488 249.953 315.6 250.685 315.18L251.077 314.945C251.382 314.774 251.616 314.827 251.781 315.101C251.944 315.393 251.874 315.625 251.569 315.795L246.703 318.583C246.404 318.756 246.172 318.695 246.01 318.404C245.845 318.129 245.912 317.905 246.211 317.732L246.614 317.508C247.335 317.091 247.514 316.562 247.151 315.919L240.607 304.456C240.243 303.816 239.698 303.704 238.974 304.121L238.571 304.344C238.275 304.518 238.045 304.465 237.889 304.188C237.727 303.897 237.794 303.667 238.09 303.494L242.956 300.707C243.264 300.536 243.498 300.595 243.661 300.886C243.817 301.163 243.745 301.387 243.437 301.557L243.045 301.792C242.316 302.212 242.134 302.741 242.497 303.382L245.294 308.273L252.743 304.009L249.947 299.117C249.581 298.476 249.033 298.364 248.303 298.781L247.911 299.005C247.598 299.184 247.363 299.137 247.206 298.86C247.042 298.569 247.117 298.334 247.43 298.154L252.285 295.378C252.598 295.199 252.836 295.255 253.001 295.546C253.157 295.823 253.079 296.05 252.766 296.229L252.374 296.453C251.642 296.873 251.46 297.402 251.826 298.043L258.37 309.505C258.733 310.148 259.282 310.26 260.014 309.841L260.406 309.617C260.719 309.438 260.957 309.488 261.122 309.762C261.284 310.053 261.211 310.288 260.898 310.467L256.043 313.243C255.73 313.422 255.49 313.366 255.327 313.075C255.162 312.801 255.238 312.572 255.551 312.393L255.943 312.169C256.672 311.752 256.854 311.223 256.491 310.579Z" fill="#BA8E4C"/>
<path d="M275.884 287.889C276.667 288.83 277.218 289.882 277.54 291.046C277.867 292.21 277.99 293.357 277.909 294.482C277.811 295.602 277.506 296.685 276.992 297.728C276.483 298.775 275.733 299.707 274.743 300.527C273.795 301.305 272.758 301.842 271.634 302.139C270.515 302.438 269.391 302.53 268.267 302.418C267.143 302.284 266.052 301.934 265.001 301.366C263.949 300.801 263.032 300.045 262.249 299.105C261.474 298.151 260.912 297.107 260.56 295.971C260.21 294.829 260.079 293.693 260.168 292.557C260.266 291.424 260.568 290.335 261.074 289.288C261.583 288.236 262.31 287.324 263.256 286.546C264.248 285.726 265.311 285.166 266.444 284.867C267.576 284.57 268.697 284.486 269.81 284.621C270.929 284.794 272.025 285.144 273.099 285.673C274.178 286.196 275.107 286.935 275.884 287.889ZM273.916 289.501C273.214 288.645 272.439 287.928 271.589 287.352C270.744 286.77 269.855 286.387 268.916 286.199C268.012 285.984 267.112 285.972 266.209 286.165C265.3 286.361 264.514 286.731 263.848 287.274C263.222 287.783 262.73 288.46 262.372 289.311C262.014 290.162 261.846 291.057 261.869 291.997C261.885 292.946 262.103 293.886 262.529 294.818C262.954 295.744 263.518 296.637 264.218 297.493C264.928 298.352 265.691 299.072 266.511 299.654C267.33 300.236 268.211 300.636 269.15 300.851C270.073 301.061 270.979 301.07 271.869 300.874C272.763 300.672 273.524 300.32 274.151 299.81C274.813 299.267 275.328 298.568 275.694 297.717C276.066 296.866 276.234 295.979 276.197 295.053C276.175 294.099 275.965 293.15 275.571 292.21C275.174 291.264 274.623 290.36 273.916 289.501Z" fill="#BA8E4C"/>
<path d="M284.262 268.892C283.711 268.408 283.154 268.489 282.595 269.138L282.315 269.463C282.086 269.726 281.846 269.751 281.599 269.541C281.348 269.326 281.337 269.088 281.566 268.825L284.754 265.142C284.994 264.874 285.24 264.848 285.492 265.064C285.738 265.274 285.744 265.512 285.503 265.78L285.246 266.082C284.681 266.732 284.673 267.3 285.224 267.784L292.013 273.683C293.535 275.004 294.334 276.378 294.418 277.802C294.513 279.587 293.87 281.281 292.483 282.884C291.102 284.473 289.586 285.341 287.931 285.481C286.588 285.556 285.101 284.888 283.467 283.477L276.711 277.601C276.16 277.117 275.604 277.195 275.045 277.836L274.754 278.172C274.524 278.435 274.284 278.46 274.038 278.25C273.786 278.034 273.775 277.797 274.004 277.533L277.684 273.302C277.908 273.034 278.149 273.008 278.4 273.224C278.646 273.434 278.658 273.672 278.434 273.94L278.154 274.254C277.589 274.903 277.581 275.471 278.132 275.955L284.575 281.552C286.051 282.836 287.24 283.542 288.143 283.668C289.678 283.796 290.965 283.262 292.002 282.067C292.987 280.942 293.389 279.621 293.21 278.104C293.098 277.052 292.343 275.919 290.951 274.702L284.262 268.892Z" fill="#BA8E4C"/>
<path d="M308.786 257.675C308.89 259.265 308.344 261.03 307.153 262.97C305.816 265.127 304.004 266.392 301.717 266.764C299.317 267.108 297.142 266.675 295.195 265.466C293.065 264.153 291.725 262.306 291.18 259.925C290.66 257.502 291.034 255.254 292.309 253.186C293.146 251.843 294.096 250.755 295.162 249.918C295.573 249.644 295.973 249.605 296.359 249.806L298.395 250.802C298.68 250.945 298.741 251.183 298.585 251.519C298.428 251.871 298.199 251.978 297.891 251.843C297.34 251.642 296.773 251.58 296.191 251.653C294.91 251.751 293.842 252.49 292.992 253.869C292.075 255.355 291.971 257.11 292.679 259.13C293.224 260.653 294.507 262.038 296.527 263.283C298.355 264.419 300.179 264.884 301.996 264.682C304.144 264.481 305.66 263.661 306.549 262.22C307.287 261.028 307.603 260.026 307.5 259.22C307.447 258.825 306.89 258.302 305.833 257.653L303.607 256.276C302.972 255.881 302.433 256.049 301.985 256.78L301.761 257.138C301.568 257.446 301.336 257.516 301.068 257.35C300.777 257.171 300.73 256.931 300.923 256.623L303.831 251.899C304.038 251.572 304.289 251.496 304.58 251.675C304.849 251.84 304.877 252.087 304.67 252.414L304.468 252.739C304.021 253.472 304.113 254.034 304.748 254.429L307.791 256.309C308.431 256.707 308.764 257.16 308.786 257.675Z" fill="#BA8E4C"/>
<path d="M317.579 236.773L311.561 234.288L308.306 242.224L314.324 244.709C315.009 244.986 315.513 244.737 315.834 243.959L316.002 243.534C316.136 243.206 316.352 243.106 316.651 243.232C316.956 243.36 317.042 243.587 316.908 243.914L314.783 249.097C314.649 249.419 314.43 249.517 314.123 249.388C313.826 249.262 313.743 249.038 313.877 248.716L314.045 248.291C314.366 247.524 314.184 247.001 313.496 246.724L301.304 241.698C300.627 241.415 300.127 241.659 299.805 242.426L299.637 242.851C299.503 243.173 299.288 243.274 298.989 243.153C298.675 243.027 298.586 242.803 298.72 242.482L300.845 237.299C300.98 236.972 301.203 236.871 301.517 236.997C301.816 237.117 301.897 237.341 301.763 237.668L301.595 238.094C301.276 238.872 301.455 239.401 302.132 239.683L307.333 241.821L310.588 233.885L305.387 231.747C304.71 231.464 304.209 231.711 303.888 232.486L303.72 232.9C303.586 233.236 303.371 233.345 303.071 233.225C302.758 233.099 302.669 232.866 302.803 232.531L304.928 227.359C305.071 227.023 305.297 226.92 305.61 227.046C305.91 227.166 305.988 227.393 305.845 227.729L305.678 228.143C305.359 228.921 305.538 229.45 306.215 229.732L318.407 234.758C319.092 235.035 319.595 234.786 319.917 234.008L320.085 233.594C320.225 233.258 320.446 233.155 320.745 233.281C321.05 233.409 321.131 233.639 320.991 233.975L318.866 239.146C318.731 239.482 318.51 239.588 318.206 239.459C317.906 239.333 317.825 239.101 317.96 238.765L318.127 238.351C318.446 237.576 318.264 237.05 317.579 236.773Z" fill="#BA8E4C"/>
<path d="M309.616 209.131C309.722 208.7 310.024 208.498 310.522 208.526L313.631 208.828C314.056 208.89 314.23 209.103 314.146 209.466C314.073 209.766 313.819 209.909 313.385 209.892C312.267 209.864 311.472 210.009 311.003 210.328C310.483 210.695 310.15 211.176 310.007 211.772L309.347 214.526L323.251 217.85C323.967 218.024 324.426 217.691 324.627 216.854L324.728 216.451C324.809 216.101 325.007 215.964 325.32 216.037C325.648 216.121 325.771 216.337 325.69 216.686L324.392 222.126C324.303 222.471 324.093 222.602 323.766 222.518C323.452 222.445 323.341 222.236 323.43 221.891L323.52 221.477C323.721 220.643 323.464 220.14 322.748 219.966L308.844 216.642L308.184 219.418C308.044 220.022 308.125 220.587 308.43 221.108C308.729 221.631 309.367 222.132 310.343 222.608C310.74 222.781 310.899 223.022 310.824 223.335C310.743 223.702 310.497 223.811 310.085 223.66L307.177 222.529C306.716 222.345 306.537 222.037 306.64 221.611L309.616 209.131Z" fill="#BA8E4C"/>
</g>
<mask id="mask16_1816_672" style="mask-type:luminance" maskUnits="userSpaceOnUse" x="0" y="0" width="189" height="180">
<path d="M188.278 0H0V179.097H188.278V0Z" fill="white"/>
</mask>
<g mask="url(#mask16_1816_672)">
<path d="M33.6839 149.555C33.0127 149.152 32.5849 149.41 32.3975 150.328L32.2745 150.977C32.2074 151.321 32.0172 151.464 31.704 151.402C31.3768 151.335 31.2454 151.131 31.3125 150.787L32.2857 145.94C32.3528 145.59 32.5513 145.447 32.8785 145.515C33.1917 145.576 33.3147 145.78 33.2476 146.13L33.1134 146.802C33.0099 147.311 33.3315 147.787 34.0754 148.235L47.5542 156.462C47.9345 156.694 48.0967 156.94 48.0464 157.201C48.0016 157.447 47.7667 157.604 47.3417 157.671L31.6369 160.436C30.7812 160.547 30.303 160.844 30.2051 161.32L30.0933 161.868C30.0205 162.249 29.8248 162.411 29.5116 162.35C29.1844 162.282 29.0586 162.059 29.1313 161.678L30.2275 156.216C30.2946 155.866 30.4931 155.723 30.8203 155.79C31.1335 155.852 31.2566 156.056 31.1895 156.406L31.044 157.133C30.8735 158.001 31.1783 158.354 31.9613 158.197L44.5005 156.104L33.6839 149.555Z" fill="#BA8E4C"/>
<path d="M40.5887 131.425L45.9466 135.891L47.5686 131.593L40.5887 131.425ZM46.8415 136.697L50.2196 139.618C50.8236 140.133 51.3158 139.881 51.6961 138.857L51.8751 138.387C52.0009 138.051 52.2134 137.945 52.5127 138.063C52.8259 138.183 52.9181 138.41 52.7923 138.745L50.9914 143.514C50.8656 143.836 50.6446 143.936 50.3314 143.816C50.035 143.698 49.9483 143.477 50.0742 143.156L50.2867 142.585C50.4824 142.087 50.2503 141.541 49.5932 140.95L37.6468 130.608C37.3112 130.317 37.1854 130.065 37.2665 129.846C37.3867 129.527 37.658 129.371 38.083 129.376L54.0339 129.231C54.898 129.262 55.4321 129.018 55.6335 128.503L55.8125 128.033C55.9523 127.653 56.1732 127.524 56.4724 127.641C56.7856 127.762 56.8695 128.011 56.7297 128.391L54.6491 133.865C54.5429 134.142 54.3359 134.22 54.0227 134.1C53.7235 133.982 53.6256 133.784 53.7319 133.507L53.8549 133.193C54.2409 132.158 54.0451 131.623 53.2621 131.593L48.7878 131.57L46.8415 136.697Z" fill="#BA8E4C"/>
<path d="M64.7785 113.42L59.7337 122.42C59.5548 122.742 59.3199 122.82 59.029 122.655C58.7466 122.498 58.6935 122.26 58.8724 121.938L59.0961 121.547C59.5128 120.802 59.401 120.248 58.7606 119.89L47.2616 113.431C46.6212 113.068 46.0927 113.258 45.6733 114.002L45.4607 114.372C45.2901 114.679 45.0636 114.752 44.7784 114.595C44.4876 114.433 44.4288 114.198 44.5994 113.89L47.3399 108.999C47.5133 108.694 47.7426 108.624 48.0334 108.786C48.3187 108.943 48.3746 109.175 48.2012 109.48L47.9887 109.861C47.572 110.608 47.6839 111.165 48.3243 111.528L59.8232 117.987C60.4636 118.345 60.967 118.2 61.3333 117.551L62.6756 115.166C63.0168 114.548 63.1258 113.932 63 113.319C62.8797 112.732 62.3987 112.074 61.557 111.349C61.227 111.067 61.1347 110.801 61.2774 110.555C61.4619 110.213 61.7304 110.168 62.0827 110.42L64.566 112.29C64.9687 112.589 65.0386 112.967 64.7785 113.42Z" fill="#BA8E4C"/>
<path d="M64.7473 87.3527C64.1656 86.8994 63.6147 87.0057 63.0918 87.6773L62.8233 88.0131C62.608 88.2902 62.3731 88.3322 62.1186 88.1363C61.8585 87.9292 61.8362 87.6857 62.0515 87.4087L65.0493 83.5805C65.273 83.2979 65.5163 83.2615 65.7763 83.4686C66.0308 83.6644 66.0448 83.9023 65.8211 84.1849L65.575 84.4984C65.0465 85.1784 65.0716 85.7464 65.6533 86.1998L72.7227 91.7406C74.3111 92.9887 75.1836 94.3207 75.3402 95.7367C75.5247 97.5137 74.9654 99.2375 73.6623 100.908C72.3647 102.565 70.891 103.505 69.2439 103.729C67.9184 103.88 66.4027 103.287 64.7025 101.949L57.6555 96.4307C57.0738 95.9773 56.5201 96.0893 55.9888 96.7665L55.7204 97.1023C55.505 97.3793 55.2701 97.4213 55.0157 97.2254C54.7556 97.0183 54.7332 96.7749 54.9485 96.4978L58.4049 92.0876C58.6147 91.8133 58.8496 91.7798 59.1096 91.9868C59.3641 92.1827 59.3865 92.4178 59.1768 92.692L58.9083 93.0278C58.3798 93.6995 58.4049 94.2647 58.9866 94.7181L65.698 99.979C67.2361 101.188 68.4637 101.834 69.3893 101.916C70.9246 101.96 72.1774 101.361 73.1477 100.113C74.0706 98.9352 74.4061 97.5948 74.1545 96.0949C73.9811 95.0511 73.1701 93.9569 71.716 92.8152L64.7473 87.3527Z" fill="#BA8E4C"/>
<path d="M87.8602 77.9769C88.9619 79.1495 89.3954 80.5682 89.1577 82.2305C88.934 83.7472 88.165 85.1184 86.8534 86.3497C85.6957 87.4411 84.4485 88.1127 83.1062 88.3645C82.6364 88.4541 82.2533 88.317 81.9541 87.9504L80.3433 86.0922C80.0385 85.7508 79.991 85.4374 80.1979 85.152C80.4524 84.7882 80.7628 84.7714 81.1263 85.1072C83.1006 86.8478 84.8875 86.9653 86.4843 85.4654C87.2058 84.7882 87.6532 83.9627 87.8266 82.9916C87.9888 82.001 87.7203 81.1307 87.0212 80.3835C85.6929 78.9732 83.9172 78.7381 81.6968 79.6783C79.9966 80.3807 78.727 80.7473 77.8825 80.7753C76.7415 80.8733 75.774 80.5011 74.9742 79.656C73.9898 78.6038 73.5927 77.4033 73.7773 76.0516C73.9507 74.7084 74.5379 73.5639 75.5446 72.6152C76.694 71.535 77.7371 70.8662 78.6767 70.6116C79.0737 70.4717 79.4317 70.55 79.7505 70.8466L81.3724 72.2682C81.6045 72.4865 81.6045 72.7328 81.3724 73.007C81.1347 73.3064 80.8802 73.354 80.6118 73.1525C78.8528 71.8709 77.3875 71.8848 76.2158 73.1973C74.8371 74.7504 74.7169 76.13 75.8578 77.3389C76.4479 77.9657 77.34 78.2512 78.5312 78.1896C79.3142 78.1448 80.3182 77.8594 81.5402 77.3277C82.3903 76.9695 83.3803 76.7456 84.5156 76.6561C85.8188 76.5526 86.9345 76.9919 87.8602 77.9769Z" fill="#BA8E4C"/>
<path d="M106.119 60.4281C106.805 61.4355 107.26 62.5325 107.484 63.719C107.708 64.8999 107.73 66.0473 107.551 67.1666C107.35 68.2804 106.947 69.3354 106.343 70.3344C105.745 71.3278 104.917 72.1869 103.86 72.9089C102.845 73.6029 101.763 74.0506 100.616 74.2521C99.4751 74.448 98.3482 74.4368 97.238 74.2185C96.125 73.9807 95.0735 73.5357 94.0724 72.8865C93.0741 72.2317 92.2323 71.3978 91.5444 70.3904C90.8509 69.3689 90.3811 68.2748 90.135 67.1106C89.8889 65.9465 89.861 64.802 90.0455 63.6742C90.2469 62.5633 90.6468 61.5083 91.2424 60.5065C91.8408 59.5074 92.6462 58.6595 93.6585 57.9655C94.7184 57.2435 95.823 56.7846 96.9807 56.5887C98.1356 56.3872 99.2626 56.3984 100.359 56.6223C101.447 56.8993 102.506 57.3471 103.536 57.9655C104.565 58.5868 105.426 59.4067 106.119 60.4281ZM104.028 61.8609C103.401 60.943 102.688 60.1595 101.891 59.5102C101.1 58.861 100.247 58.3993 99.3297 58.1222C98.4488 57.8312 97.5456 57.7417 96.6228 57.8536C95.7055 57.9599 94.8946 58.2538 94.1843 58.7379C93.5215 59.194 92.9734 59.832 92.54 60.652C92.1093 61.4663 91.8576 62.3422 91.7905 63.2825C91.7234 64.2227 91.8632 65.1742 92.2044 66.1368C92.54 67.0995 93.0209 68.0397 93.6473 68.9576C94.2737 69.8754 94.9729 70.6646 95.7391 71.3194C96.4997 71.9686 97.3386 72.4444 98.2559 72.741C99.1647 73.0404 100.071 73.13 100.974 73.0096C101.883 72.8837 102.669 72.5927 103.334 72.1365C104.042 71.6524 104.615 71.006 105.057 70.2001C105.496 69.3885 105.742 68.5154 105.795 67.5808C105.854 66.6405 105.731 65.6835 105.426 64.704C105.118 63.7274 104.654 62.7787 104.028 61.8609Z" fill="#BA8E4C"/>
<path d="M119.068 53.5732C120.165 53.0666 120.872 52.3754 121.194 51.5023C121.535 50.5705 121.479 49.619 121.026 48.648C120.413 47.3439 119.731 46.5856 118.979 46.3757C118.076 46.1378 117.125 46.2498 116.127 46.7115L114.65 47.4055C113.979 47.7189 113.8 48.2114 114.113 48.8831L116.809 54.6365L119.068 53.5732ZM120.053 54.2112L117.223 55.532L119.706 60.8378C120.019 61.5038 120.562 61.6549 121.339 61.2967L121.731 61.1064C122.049 60.9581 122.279 61.028 122.413 61.3191C122.553 61.6269 122.463 61.8536 122.144 62.0019L117.066 64.3861C116.753 64.5372 116.524 64.4589 116.384 64.151C116.25 63.86 116.339 63.6417 116.652 63.4906L117.044 63.3003C117.818 62.9421 118.051 62.4328 117.737 61.7668L112.144 49.8121C111.831 49.1405 111.289 48.9838 110.511 49.342L110.12 49.5323C109.807 49.6834 109.583 49.6106 109.449 49.3196C109.309 49.023 109.393 48.7991 109.706 48.648L115.713 45.8272C117.391 45.0437 118.934 44.831 120.344 45.1892C121.686 45.5026 122.651 46.2918 123.241 47.551C123.747 48.634 123.755 49.7394 123.263 50.8643C122.606 52.4034 121.535 53.5172 120.053 54.2112Z" fill="#BA8E4C"/>
<path d="M146.129 51.1145L144.339 44.8574L136.084 47.2192L137.873 53.4764C138.075 54.1928 138.581 54.4362 139.395 54.204L139.842 54.0808C140.178 53.9857 140.39 54.0892 140.48 54.3942C140.569 54.7161 140.446 54.9259 140.111 55.0211L134.719 56.5546C134.384 56.6525 134.171 56.5406 134.082 56.2188C133.992 55.9138 134.115 55.7123 134.451 55.6143L134.887 55.4912C135.692 55.2617 135.994 54.786 135.793 54.0696L132.158 41.3874C131.956 40.6794 131.453 40.4415 130.648 40.671L130.211 40.7941C129.876 40.892 129.663 40.7829 129.574 40.4695C129.484 40.1505 129.607 39.9406 129.943 39.8426L135.334 38.3091C135.67 38.214 135.882 38.3259 135.972 38.6449C136.061 38.9584 135.938 39.1654 135.603 39.2606L135.155 39.3837C134.342 39.616 134.037 40.0861 134.238 40.7941L135.793 46.2118L144.048 43.8499L142.493 38.4323C142.292 37.7243 141.783 37.4864 140.972 37.7159L140.547 37.839C140.203 37.9369 139.988 37.8278 139.898 37.5144C139.809 37.1954 139.934 36.9855 140.278 36.8876L145.648 35.3428C145.997 35.2477 146.218 35.3596 146.308 35.6787C146.397 35.9921 146.266 36.1992 145.916 36.2943L145.491 36.4174C144.677 36.6497 144.372 37.1198 144.574 37.8278L148.209 50.5101C148.41 51.2265 148.917 51.4699 149.73 51.2377L150.155 51.1145C150.505 51.0194 150.726 51.1229 150.815 51.428C150.905 51.7498 150.773 51.9597 150.424 52.0548L145.055 53.5995C144.711 53.6975 144.495 53.5855 144.406 53.2637C144.316 52.9587 144.442 52.7572 144.786 52.6593L145.211 52.5361C146.022 52.3067 146.33 51.8309 146.129 51.1145Z" fill="#BA8E4C"/>
<path d="M168.847 35.2971L165.637 42.6401L166.185 47.7107C166.258 48.4271 166.722 48.7378 167.572 48.6398L167.997 48.595C168.347 48.5587 168.539 48.6958 168.579 49.0092C168.615 49.345 168.458 49.5325 168.109 49.5689L162.55 50.1733C162.192 50.2125 161.993 50.0614 161.957 49.7256C161.918 49.4122 162.08 49.2387 162.438 49.1995L162.852 49.1547C163.707 49.0596 164.099 48.651 164.026 47.9346L163.478 42.9199L157.359 35.1964C156.948 34.6087 156.414 34.3457 155.76 34.4128L155.089 34.4912C154.753 34.5304 154.571 34.3876 154.541 34.0658C154.504 33.73 154.652 33.5453 154.988 33.5061L161.14 32.8345C161.498 32.7982 161.694 32.9465 161.733 33.2823C161.761 33.6041 161.599 33.7832 161.241 33.8196L160.245 33.9315C159.789 33.9763 159.58 34.1442 159.619 34.4352C159.633 34.5919 159.798 34.869 160.111 35.2635L164.831 41.2073L167.74 34.6367C167.91 34.2421 167.986 33.9203 167.963 33.674C167.919 33.2935 167.463 33.1535 166.599 33.2487L166.218 33.2823C165.866 33.3215 165.676 33.1787 165.648 32.8569C165.609 32.5211 165.765 32.3364 166.118 32.2972L171.532 31.7152C171.918 31.6704 172.13 31.8159 172.169 32.1517C172.197 32.4735 172.018 32.6554 171.632 32.7002L171.129 32.7562C170.749 32.7954 170.463 32.8905 170.279 33.0472C169.77 33.4894 169.295 34.2393 168.847 35.2971Z" fill="#BA8E4C"/>
</g>
<mask id="mask17_1816_672" style="mask-type:luminance" maskUnits="userSpaceOnUse" x="219" y="26" width="132" height="153">
<path d="M350.069 26.5063H219.777V178.38H350.069V26.5063Z" fill="white"/>
</mask>
<g mask="url(#mask17_1816_672)">
<path d="M240.511 62.5743C241.152 62.8877 241.775 62.9605 242.379 62.7982C242.961 62.6331 243.587 62.1154 244.258 61.2423C244.533 60.8897 244.798 60.7749 245.053 60.8953C245.394 61.066 245.447 61.3374 245.209 61.7124L243.498 64.2981C243.213 64.7151 242.838 64.8074 242.368 64.5779L232.156 59.5632C231.842 59.4065 231.758 59.1798 231.909 58.8804C232.049 58.5894 232.279 58.5222 232.592 58.6789L232.972 58.858C233.747 59.2386 234.298 59.0987 234.628 58.4327L240.444 46.5899C240.771 45.9351 240.548 45.4146 239.773 45.034L239.393 44.8549C239.079 44.6982 238.993 44.4743 239.135 44.1833C239.275 43.8867 239.505 43.8139 239.818 43.9706L250.075 49.0189C250.536 49.2428 250.668 49.5646 250.467 49.9816L249.348 52.2427C249.175 52.5952 248.903 52.6764 248.531 52.4889C248.218 52.3406 248.146 52.0915 248.319 51.7389C248.632 51.1121 248.694 50.5468 248.509 50.0375C248.313 49.4778 247.941 49.0609 247.39 48.7838L243.901 47.0712C243.221 46.7354 242.718 46.8977 242.39 47.5526L239.963 52.4889L243.509 54.2351C244.253 54.6017 244.829 54.3806 245.232 53.5747L245.467 53.0822C245.623 52.7548 245.88 52.6792 246.238 52.8583C246.647 53.0598 246.767 53.3368 246.596 53.6866L244.493 57.9849C244.32 58.3375 244.029 58.4103 243.621 58.2088C243.263 58.0297 243.165 57.7723 243.33 57.4365L243.554 56.9663C243.956 56.1464 243.783 55.5531 243.039 55.1866L239.493 53.4404L236.574 59.3953C236.244 60.0585 236.428 60.5623 237.122 60.9065L240.511 62.5743Z" fill="#BA8E4C"/>
<path d="M260.243 69.5703C259.349 70.9135 258.065 71.6523 256.396 71.7866C254.874 71.9265 253.364 71.4983 251.865 70.4993C250.545 69.6178 249.609 68.5461 249.058 67.2868C248.856 66.8614 248.895 66.4641 249.181 66.0891L250.646 64.0854C250.906 63.7132 251.197 63.5901 251.519 63.716C251.921 63.8895 252.002 64.1862 251.765 64.6115C250.534 66.9398 250.828 68.7084 252.648 69.9173C253.468 70.4685 254.371 70.7232 255.355 70.6784C256.362 70.6113 257.148 70.1523 257.715 69.3016C258.789 67.6897 258.61 65.9072 257.179 63.9511C256.119 62.4596 255.473 61.3038 255.243 60.4811C254.891 59.3925 255.036 58.3655 255.68 57.4029C256.477 56.2024 257.559 55.5336 258.923 55.3992C260.257 55.2649 261.499 55.5783 262.648 56.3395C263.968 57.221 264.863 58.0857 265.333 58.9364C265.557 59.289 265.559 59.6584 265.344 60.0446L264.326 61.9475C264.17 62.2245 263.926 62.2805 263.599 62.1154C263.247 61.9531 263.143 61.718 263.286 61.4102C264.136 59.4037 263.792 57.9794 262.257 57.1342C260.428 56.1492 259.052 56.3507 258.129 57.7387C257.659 58.4495 257.587 59.3785 257.917 60.5259C258.14 61.2814 258.644 62.1937 259.427 63.2683C259.978 64.0155 260.428 64.9249 260.78 65.9995C261.166 67.2532 260.987 68.4425 260.243 69.5703Z" fill="#BA8E4C"/>
<path d="M283.157 72.9567C283.492 73.2561 283.531 73.6171 283.28 74.0424L281.568 76.6617C281.314 76.9975 281.045 77.0423 280.763 76.7961C280.531 76.5946 280.528 76.3119 280.752 75.9453C281.294 74.9687 281.535 74.1964 281.467 73.6283C281.392 73.0014 281.121 72.4865 280.651 72.0836L278.526 70.2143L269.096 80.9601C268.609 81.5197 268.688 82.0822 269.331 82.6503L269.655 82.9301C269.924 83.1596 269.952 83.3946 269.745 83.6353C269.521 83.8872 269.275 83.8984 269.007 83.6689L264.801 79.975C264.532 79.7344 264.51 79.4881 264.734 79.2362C264.941 78.9956 265.181 78.9956 265.449 79.2362L265.774 79.5161C266.414 80.0814 266.976 80.087 267.463 79.5273L276.892 68.7815L274.745 66.901C274.281 66.4924 273.749 66.2965 273.145 66.3189C272.541 66.3497 271.803 66.6855 270.93 67.3263C270.587 67.581 270.293 67.6034 270.047 67.3935C269.77 67.1472 269.792 66.887 270.114 66.6099L272.474 64.5503C272.838 64.2313 273.19 64.2145 273.526 64.5055L283.157 72.9567Z" fill="#BA8E4C"/>
<path d="M295.681 116.216C295.396 116.395 295.133 116.289 294.887 115.902L289.898 107.854C289.464 107.174 289.674 106.892 290.524 107.004L300.558 108.448C302.004 108.694 303.41 108.392 304.775 107.541C305.55 107.062 306.067 106.335 306.33 105.358C306.598 104.44 306.47 103.562 305.949 102.716C305.211 101.53 303.852 101.057 301.878 101.295C301.235 101.379 300.871 101.239 300.782 100.881C300.715 100.523 300.927 100.304 301.419 100.22C303.88 99.7726 305.776 100.62 307.113 102.761C307.991 104.18 308.301 105.456 308.041 106.589C307.756 107.849 307.093 108.806 306.05 109.455C304.767 110.253 302.672 110.378 299.764 109.836L292.672 108.66L295.379 113.015C295.944 113.932 296.855 114.106 298.108 113.541C298.427 113.406 298.659 113.451 298.802 113.675C298.981 113.966 298.953 114.181 298.723 114.324L295.681 116.216Z" fill="#BA8E4C"/>
<path d="M310.708 128.806C309.59 129.313 308.508 129.64 307.465 129.791C306.427 129.948 305.42 129.951 304.444 129.802C303.482 129.674 302.644 129.377 301.928 128.907C301.217 128.437 300.692 127.824 300.35 127.071C299.998 126.302 299.881 125.498 299.993 124.665C300.104 123.828 300.423 122.997 300.954 122.168C301.483 121.346 302.146 120.596 302.946 119.907C303.743 119.213 304.702 118.614 305.82 118.105C306.93 117.599 308.015 117.263 309.075 117.098C310.141 116.935 311.156 116.919 312.118 117.053C313.094 117.196 313.936 117.498 314.646 117.96C315.362 118.416 315.893 119.029 316.245 119.795C316.587 120.551 316.704 121.346 316.592 122.191C316.48 123.041 316.15 123.873 315.608 124.687C315.093 125.521 314.425 126.29 313.606 126.993C312.783 127.692 311.819 128.297 310.708 128.806ZM309.802 126.836C310.823 126.366 311.718 125.862 312.487 125.325C313.262 124.788 313.91 124.2 314.433 123.568C314.931 122.946 315.275 122.353 315.462 121.788C315.655 121.22 315.636 120.685 315.406 120.176C315.166 119.655 314.769 119.28 314.21 119.057C313.656 118.827 312.99 118.704 312.207 118.687C311.394 118.687 310.529 118.805 309.612 119.034C308.701 119.266 307.736 119.616 306.715 120.086C305.692 120.557 304.805 121.052 304.053 121.575C303.306 122.104 302.669 122.675 302.14 123.288C301.631 123.898 301.282 124.485 301.089 125.045C300.893 125.61 300.921 126.164 301.167 126.702C301.405 127.222 301.799 127.592 302.353 127.81C302.904 128.025 303.575 128.146 304.366 128.168C305.185 128.191 306.038 128.09 306.928 127.866C307.823 127.648 308.779 127.306 309.802 126.836Z" fill="#BA8E4C"/>
<path d="M308.712 148.025C308.39 148.128 308.164 147.963 308.03 147.532L305.222 138.488C304.982 137.718 305.256 137.492 306.039 137.805L315.39 141.734C316.732 142.352 318.17 142.422 319.708 141.947C320.572 141.67 321.254 141.09 321.755 140.212C322.247 139.397 322.342 138.516 322.045 137.57C321.634 136.235 320.446 135.429 318.477 135.152C317.834 135.079 317.51 134.85 317.504 134.469C317.54 134.111 317.8 133.954 318.287 133.999C320.784 134.187 322.409 135.485 323.164 137.895C323.656 139.49 323.637 140.805 323.108 141.835C322.51 142.982 321.632 143.74 320.468 144.107C319.02 144.555 316.956 144.146 314.271 142.887L307.705 139.965L309.227 144.857C309.545 145.878 310.384 146.278 311.743 146.055C312.071 146.001 312.275 146.102 312.359 146.357C312.454 146.676 312.375 146.877 312.124 146.961L308.712 148.025Z" fill="#BA8E4C"/>
<path d="M308.024 157.454C307.907 156.765 307.932 156.113 308.103 155.495C308.29 154.829 308.601 154.459 309.031 154.387C309.546 154.297 309.851 154.524 309.948 155.07C310.021 155.5 309.904 155.99 309.591 156.536C309.291 157.065 309.199 157.638 309.311 158.26C309.473 159.2 310.074 160.109 311.112 160.991C312.468 162.116 314.042 162.519 315.832 162.2C317.837 161.847 318.931 160.58 319.11 158.394C319.221 157.168 318.992 155.758 318.427 154.163C318.195 153.536 318.461 153.251 319.221 153.312L326 153.838C326.447 153.861 326.721 154.076 326.828 154.487L328.327 159.502C328.408 159.793 328.52 160.079 328.662 160.364C328.766 160.588 328.866 160.759 328.964 160.879C329.112 161.019 329.177 161.17 329.154 161.327C329.115 161.528 328.978 161.621 328.74 161.607L327.532 161.539C327.144 161.5 326.85 161.276 326.649 160.868C326.475 160.51 326.347 160.165 326.257 159.838L324.848 155.349C324.758 155.095 324.551 154.949 324.233 154.913L320.195 154.655C321.089 157.02 321.235 159.2 320.631 161.192C320.116 162.849 318.866 163.851 316.884 164.203C314.929 164.545 313.142 164.097 311.526 162.86C309.557 161.344 308.391 159.541 308.024 157.454Z" fill="#BA8E4C"/>
</g>
<defs>
<filter id="filter0_i_1816_672" x="127" y="147.095" width="51" height="31" filterUnits="userSpaceOnUse" color-interpolation-filters="sRGB">
<feFlood flood-opacity="0" result="BackgroundImageFix"/>
<feBlend mode="normal" in="SourceGraphic" in2="BackgroundImageFix" result="shape"/>
<feColorMatrix in="SourceAlpha" type="matrix" values="0 0 0 0 0 0 0 0 0 0 0 0 0 0 0 0 0 0 127 0" result="hardAlpha"/>
<feOffset dy="4"/>
<feGaussianBlur stdDeviation="2"/>
<feComposite in2="hardAlpha" operator="arithmetic" k2="-1" k3="1"/>
<feColorMatrix type="matrix" values="0 0 0 0 0 0 0 0 0 0 0 0 0 0 0 0 0 0 0.25 0"/>
<feBlend mode="normal" in2="shape" result="effect1_innerShadow_1816_672"/>
</filter>
<filter id="filter1_i_1816_672" x="179" y="147.095" width="51" height="31" filterUnits="userSpaceOnUse" color-interpolation-filters="sRGB">
<feFlood flood-opacity="0" result="BackgroundImageFix"/>
<feBlend mode="normal" in="SourceGraphic" in2="BackgroundImageFix" result="shape"/>
<feColorMatrix in="SourceAlpha" type="matrix" values="0 0 0 0 0 0 0 0 0 0 0 0 0 0 0 0 0 0 127 0" result="hardAlpha"/>
<feOffset dy="4"/>
<feGaussianBlur stdDeviation="2"/>
<feComposite in2="hardAlpha" operator="arithmetic" k2="-1" k3="1"/>
<feColorMatrix type="matrix" values="0 0 0 0 0 0 0 0 0 0 0 0 0 0 0 0 0 0 0.25 0"/>
<feBlend mode="normal" in2="shape" result="effect1_innerShadow_1816_672"/>
</filter>
<filter id="filter2_i_1816_672" x="147.5" y="64.095" width="101.5" height="98.5" filterUnits="userSpaceOnUse" color-interpolation-filters="sRGB">
<feFlood flood-opacity="0" result="BackgroundImageFix"/>
<feBlend mode="normal" in="SourceGraphic" in2="BackgroundImageFix" result="shape"/>
<feColorMatrix in="SourceAlpha" type="matrix" values="0 0 0 0 0 0 0 0 0 0 0 0 0 0 0 0 0 0 127 0" result="hardAlpha"/>
<feOffset dy="4"/>
<feGaussianBlur stdDeviation="2"/>
<feComposite in2="hardAlpha" operator="arithmetic" k2="-1" k3="1"/>
<feColorMatrix type="matrix" values="0 0 0 0 0 0 0 0 0 0 0 0 0 0 0 0 0 0 0.25 0"/>
<feBlend mode="normal" in2="shape" result="effect1_innerShadow_1816_672"/>
</filter>
</defs>
</svg>
